<?xml version="1.0" standalone="no"?>
<!DOCTYPE svg PUBLIC "-//W3C//DTD SVG 20010904//EN"
 "http://www.w3.org/TR/2001/REC-SVG-20010904/DTD/svg10.dtd">
<svg version="1.0" xmlns="http://www.w3.org/2000/svg"
 width="320.000000pt" height="320.000000pt" viewBox="0 0 320.000000 320.000000"
 preserveAspectRatio="xMidYMid meet">
<metadata>
Created by potrace 1.14, written by Peter Selinger 2001-2017
</metadata>
<g transform="translate(0.000000,320.000000) scale(0.100000,-0.100000)"
fill="#000000" stroke="none">
<path d="M0 1600 l0 -1600 1600 0 1600 0 0 1600 0 1600 -1600 0 -1600 0 0
-1600z m3000 100 l0 -1300 -100 0 -100 0 0 -100 0 -100 -1300 0 -1300 0 0
1300 0 1300 100 0 100 0 0 100 0 100 1300 0 1300 0 0 -1300z"/>
<path d="M400 1600 l0 -1200 1200 0 1200 0 0 1200 0 1200 -1200 0 -1200 0 0
-1200z m600 200 l0 -600 100 0 100 0 0 300 0 300 200 0 200 0 0 -300 0 -300
-200 0 -200 0 0 -100 0 -100 200 0 200 0 0 -200 0 -200 -200 0 -200 0 0 200 0
200 -100 0 -100 0 0 -200 0 -200 -200 0 -200 0 0 900 0 900 200 0 200 0 0
-600z m1600 0 l0 -200 -200 0 -200 0 0 -100 0 -100 200 0 200 0 0 -300 0 -300
-100 0 -100 0 0 -100 0 -100 -300 0 -300 0 0 200 0 200 200 0 200 0 0 100 0
100 -200 0 -200 0 0 300 0 300 100 0 100 0 0 100 0 100 300 0 300 0 0 -200z"/>
</g>
</svg>
